<mxfile host="app.diagrams.net" agent="Mozilla/5.0 (Windows NT 10.0; Win64; x64) AppleWebKit/537.36 (KHTML, like Gecko) Chrome/129.0.0.0 Safari/537.36" version="24.8.0">
  <diagram name="Page-1" id="3fyipyna0lxZhRViGl4q">
    <mxGraphModel dx="2085" dy="1755" grid="1" gridSize="10" guides="1" tooltips="1" connect="1" arrows="1" fold="1" page="1" pageScale="1" pageWidth="850" pageHeight="1100" math="0" shadow="0">
      <root>
        <mxCell id="0" />
        <mxCell id="1" parent="0" />
        <mxCell id="JKhTQvxfSEw2D_oeRFp6-28" style="edgeStyle=orthogonalEdgeStyle;rounded=0;orthogonalLoop=1;jettySize=auto;html=1;" edge="1" parent="1" source="JKhTQvxfSEw2D_oeRFp6-1" target="JKhTQvxfSEw2D_oeRFp6-18">
          <mxGeometry relative="1" as="geometry">
            <Array as="points">
              <mxPoint x="-50" y="180" />
              <mxPoint x="-50" y="120" />
            </Array>
          </mxGeometry>
        </mxCell>
        <mxCell id="JKhTQvxfSEw2D_oeRFp6-29" style="edgeStyle=orthogonalEdgeStyle;rounded=0;orthogonalLoop=1;jettySize=auto;html=1;" edge="1" parent="1" source="JKhTQvxfSEw2D_oeRFp6-1" target="JKhTQvxfSEw2D_oeRFp6-19">
          <mxGeometry relative="1" as="geometry">
            <Array as="points">
              <mxPoint x="-15" y="190" />
              <mxPoint x="-15" y="195" />
            </Array>
          </mxGeometry>
        </mxCell>
        <mxCell id="JKhTQvxfSEw2D_oeRFp6-30" style="edgeStyle=orthogonalEdgeStyle;rounded=0;orthogonalLoop=1;jettySize=auto;html=1;entryX=0;entryY=0.5;entryDx=0;entryDy=0;" edge="1" parent="1" source="JKhTQvxfSEw2D_oeRFp6-1" target="JKhTQvxfSEw2D_oeRFp6-20">
          <mxGeometry relative="1" as="geometry">
            <Array as="points">
              <mxPoint x="-50" y="190" />
              <mxPoint x="-50" y="270" />
              <mxPoint x="140" y="270" />
            </Array>
          </mxGeometry>
        </mxCell>
        <mxCell id="JKhTQvxfSEw2D_oeRFp6-32" style="edgeStyle=orthogonalEdgeStyle;rounded=0;orthogonalLoop=1;jettySize=auto;html=1;entryX=0;entryY=0.5;entryDx=0;entryDy=0;" edge="1" parent="1" source="JKhTQvxfSEw2D_oeRFp6-1" target="JKhTQvxfSEw2D_oeRFp6-22">
          <mxGeometry relative="1" as="geometry">
            <Array as="points">
              <mxPoint x="-110" y="180" />
              <mxPoint x="-110" y="480" />
              <mxPoint x="140" y="480" />
            </Array>
          </mxGeometry>
        </mxCell>
        <mxCell id="JKhTQvxfSEw2D_oeRFp6-33" style="edgeStyle=orthogonalEdgeStyle;rounded=0;orthogonalLoop=1;jettySize=auto;html=1;entryX=0;entryY=0.5;entryDx=0;entryDy=0;" edge="1" parent="1" source="JKhTQvxfSEw2D_oeRFp6-1" target="JKhTQvxfSEw2D_oeRFp6-21">
          <mxGeometry relative="1" as="geometry">
            <Array as="points">
              <mxPoint x="-50" y="190" />
              <mxPoint x="-50" y="335" />
            </Array>
          </mxGeometry>
        </mxCell>
        <mxCell id="JKhTQvxfSEw2D_oeRFp6-1" value="Student" style="shape=umlActor;verticalLabelPosition=bottom;verticalAlign=top;html=1;" vertex="1" parent="1">
          <mxGeometry x="-200" y="150" width="30" height="60" as="geometry" />
        </mxCell>
        <mxCell id="JKhTQvxfSEw2D_oeRFp6-8" value="&#xa;Professor&#xa;&#xa;" style="shape=umlActor;verticalLabelPosition=bottom;verticalAlign=top;html=1;" vertex="1" parent="1">
          <mxGeometry x="60" y="690" width="30" height="60" as="geometry" />
        </mxCell>
        <mxCell id="JKhTQvxfSEw2D_oeRFp6-9" value="&#xa;Admin&#xa;&#xa;" style="shape=umlActor;verticalLabelPosition=bottom;verticalAlign=top;html=1;" vertex="1" parent="1">
          <mxGeometry x="60" y="890" width="30" height="60" as="geometry" />
        </mxCell>
        <mxCell id="JKhTQvxfSEw2D_oeRFp6-17" value="&#xa;Course Registration&#xa;&#xa;" style="ellipse;whiteSpace=wrap;html=1;fillColor=#d5e8d4;strokeColor=#82b366;" vertex="1" parent="1">
          <mxGeometry x="150" y="-40" width="100" height="50" as="geometry" />
        </mxCell>
        <mxCell id="JKhTQvxfSEw2D_oeRFp6-18" value="&#xa;View Transcript&#xa;&#xa;" style="ellipse;whiteSpace=wrap;html=1;fillColor=#d5e8d4;strokeColor=#82b366;" vertex="1" parent="1">
          <mxGeometry x="140" y="70" width="100" height="50" as="geometry" />
        </mxCell>
        <mxCell id="JKhTQvxfSEw2D_oeRFp6-19" value="&#xa;Grade Appeal&#xa;&#xa;" style="ellipse;whiteSpace=wrap;html=1;fillColor=#d5e8d4;strokeColor=#82b366;" vertex="1" parent="1">
          <mxGeometry x="140" y="170" width="100" height="50" as="geometry" />
        </mxCell>
        <mxCell id="JKhTQvxfSEw2D_oeRFp6-20" value="&#xa;View Notifications&#xa;&#xa;" style="ellipse;whiteSpace=wrap;html=1;fillColor=#d5e8d4;strokeColor=#82b366;" vertex="1" parent="1">
          <mxGeometry x="140" y="240" width="100" height="50" as="geometry" />
        </mxCell>
        <mxCell id="JKhTQvxfSEw2D_oeRFp6-21" value="&#xa;Submit Leave Request&#xa;&#xa;" style="ellipse;whiteSpace=wrap;html=1;fillColor=#d5e8d4;strokeColor=#82b366;" vertex="1" parent="1">
          <mxGeometry x="140" y="310" width="100" height="50" as="geometry" />
        </mxCell>
        <mxCell id="JKhTQvxfSEw2D_oeRFp6-22" value="&#xa;Track Internship Status&#xa;&#xa;" style="ellipse;whiteSpace=wrap;html=1;fillColor=#d5e8d4;strokeColor=#82b366;" vertex="1" parent="1">
          <mxGeometry x="140" y="460" width="100" height="50" as="geometry" />
        </mxCell>
        <mxCell id="JKhTQvxfSEw2D_oeRFp6-23" value="Use Case" style="ellipse;whiteSpace=wrap;html=1;" vertex="1" parent="1">
          <mxGeometry x="700" y="430" width="100" height="50" as="geometry" />
        </mxCell>
      </root>
    </mxGraphModel>
  </diagram>
</mxfile>
